<svg width="130" height="41" viewBox="0 0 130 41" fill="none" xmlns="http://www.w3.org/2000/svg">
<path d="M2.00781 40.2188C1.83594 40.1875 1.71094 40.1016 1.63281 39.9609C1.55469 39.8203 1.51562 39.6641 1.51562 39.4922C1.51562 39.3516 1.54688 39.2266 1.60938 39.1172L4.49219 33.6094C4.50781 33.5469 4.53125 33.3047 4.5625 32.8828C4.60938 32.4609 4.65625 31.9375 4.70312 31.3125C4.75 30.6719 4.79688 29.9609 4.84375 29.1797C4.90625 28.3984 4.96875 27.625 5.03125 26.8594C5.09375 26.0938 5.14844 25.3672 5.19531 24.6797C5.25781 23.9766 5.3125 23.3906 5.35938 22.9219C5.375 22.7344 5.39844 22.4531 5.42969 22.0781C5.46094 21.6875 5.49219 21.2422 5.52344 20.7422C5.55469 20.2422 5.59375 19.7031 5.64062 19.125C5.6875 18.5469 5.73438 17.9688 5.78125 17.3906L6.10938 12.4922C5.6875 12.5859 5.25 12.6875 4.79688 12.7969C4.34375 12.8906 3.89844 12.9766 3.46094 13.0547C3.03906 13.1328 2.63281 13.2031 2.24219 13.2656C1.86719 13.3125 1.53906 13.3359 1.25781 13.3359C1.08594 13.3359 0.953125 13.2578 0.859375 13.1016C0.78125 12.9453 0.742188 12.7812 0.742188 12.6094C0.742188 12.4062 0.789062 12.2578 0.882812 12.1641L6.83594 6.60938C7.32031 6.17188 7.79688 5.82031 8.26562 5.55469C8.75 5.27344 9.32812 5.05469 10 4.89844C10.6719 4.74219 11.4922 4.64062 12.4609 4.59375C13.4453 4.53125 14.6875 4.5 16.1875 4.5C18.75 4.5 21.0234 4.76562 23.0078 5.29688C24.9922 5.82812 26.6719 6.58594 28.0469 7.57031C29.0625 8.27344 29.9688 9.00781 30.7656 9.77344C31.5625 10.5391 32.2344 11.3906 32.7812 12.3281C33.3281 13.25 33.7422 14.2734 34.0234 15.3984C34.3047 16.5078 34.4453 17.7656 34.4453 19.1719C34.4453 21.8438 34.0469 24.2188 33.25 26.2969C32.4531 28.375 31.3672 30.1953 29.9922 31.7578C28.6172 33.3047 27.0078 34.6172 25.1641 35.6953C23.3359 36.7734 21.375 37.6484 19.2812 38.3203C17.2031 38.9922 15.0469 39.4766 12.8125 39.7734C10.5938 40.0703 8.41406 40.2188 6.27344 40.2188H2.00781ZM15.625 12L15.3438 14.8359C15.25 15.8203 15.1484 16.875 15.0391 18C14.9453 19.1094 14.8516 20.2422 14.7578 21.3984C14.6641 22.5391 14.5703 23.6719 14.4766 24.7969C14.3828 25.9062 14.2969 26.9453 14.2188 27.9141C14.1406 28.8828 14.0703 29.75 14.0078 30.5156C13.9453 31.2812 13.8906 31.8906 13.8438 32.3438L13.7734 33.0469C15.6641 33.0469 17.2578 32.7422 18.5547 32.1328C19.8672 31.5234 20.9297 30.6875 21.7422 29.625C22.5547 28.5469 23.1406 27.2891 23.5 25.8516C23.875 24.4141 24.0625 22.8672 24.0625 21.2109C24.0625 20.0234 23.8984 18.8828 23.5703 17.7891C23.2422 16.6797 22.7656 15.625 22.1406 14.625C21.5156 13.625 20.75 12.875 19.8438 12.375C18.9375 11.875 17.9141 11.625 16.7734 11.625C16.5859 11.625 16.3828 11.6719 16.1641 11.7656C15.9453 11.8438 15.7656 11.9219 15.625 12Z" fill="#141414"/>
<path d="M60.9297 34.2891C60.9141 34.3516 60.9062 34.4141 60.9062 34.4766C60.9062 34.5234 60.9062 34.5703 60.9062 34.6172C60.9062 35.0078 60.9688 35.3359 61.0938 35.6016C61.2188 35.8516 61.3516 36.0625 61.4922 36.2344C61.6484 36.3906 61.7891 36.5234 61.9141 36.6328C62.0391 36.7266 62.1016 36.8125 62.1016 36.8906C62.1016 37.1094 61.8672 37.3125 61.3984 37.5L55.0938 40.1953C55.0781 40.2109 55.0234 40.2188 54.9297 40.2188C54.8047 40.2188 54.6797 40.1094 54.5547 39.8906C54.4297 39.6719 54.3047 39.3906 54.1797 39.0469C54.0703 38.7188 53.9609 38.3672 53.8516 37.9922C53.7578 37.6016 53.6719 37.2422 53.5938 36.9141C52.6094 38.0547 51.5469 38.8906 50.4062 39.4219C49.2656 39.9531 48.1328 40.2188 47.0078 40.2188C45.6953 40.2188 44.4141 39.9297 43.1641 39.3516C41.9141 38.7734 40.8047 37.9531 39.8359 36.8906C38.8672 35.8125 38.0859 34.5156 37.4922 33C36.9141 31.4844 36.625 29.7812 36.625 27.8906C36.625 25.6562 36.9453 23.6172 37.5859 21.7734C38.2422 19.9297 39.125 18.3438 40.2344 17.0156C41.3438 15.6875 42.6328 14.6641 44.1016 13.9453C45.5859 13.2109 47.1562 12.8438 48.8125 12.8438C49.9844 12.8438 51.0938 13.0859 52.1406 13.5703C53.1875 14.0391 54.1797 14.6484 55.1172 15.3984C55.2109 14.9297 55.2656 14.5547 55.2812 14.2734C55.2969 13.9922 55.3281 13.7734 55.375 13.6172C55.4375 13.4609 55.5469 13.3594 55.7031 13.3125C55.8594 13.25 56.1172 13.2031 56.4766 13.1719C57.6016 13.0156 58.7188 12.875 59.8281 12.75C60.9531 12.6094 62.125 12.5078 63.3438 12.4453L60.9297 34.2891ZM53.9219 25.4531C54.0781 24.5625 54.1797 23.7266 54.2266 22.9453C54.2891 22.1484 54.3359 21.4219 54.3672 20.7656C54.1172 20.5781 53.8438 20.3828 53.5469 20.1797C53.2656 19.9766 52.9531 19.7891 52.6094 19.6172C52.2812 19.4297 51.9297 19.2812 51.5547 19.1719C51.1953 19.0625 50.8125 19.0078 50.4062 19.0078C49.5625 19.0078 48.8516 19.2812 48.2734 19.8281C47.7109 20.375 47.25 21.0469 46.8906 21.8438C46.5469 22.6406 46.2969 23.4844 46.1406 24.375C46 25.2656 45.9297 26.0547 45.9297 26.7422C45.9297 29.2109 46.25 31.0234 46.8906 32.1797C47.5469 33.3203 48.4531 33.8906 49.6094 33.8906C50.0781 33.8906 50.6016 33.7578 51.1797 33.4922C51.7578 33.2266 52.3438 32.8594 52.9375 32.3906L53.9219 25.4531Z" fill="#141414"/>
<path d="M85.4219 19.9219C85.0938 19.8906 84.7266 19.8594 84.3203 19.8281C83.9141 19.7812 83.4844 19.7578 83.0312 19.7578C82.3438 19.7578 81.6406 19.8203 80.9219 19.9453C80.2188 20.0547 79.5625 20.2812 78.9531 20.625C78.3438 20.9688 77.8203 21.4453 77.3828 22.0547C76.9453 22.6484 76.6641 23.4219 76.5391 24.375C76.4297 25.5312 76.3359 26.4844 76.2578 27.2344C76.1953 27.9688 76.1484 28.5781 76.1172 29.0625C76.0859 29.5312 76.0547 29.9141 76.0234 30.2109C76.0078 30.4922 75.9922 30.7578 75.9766 31.0078C75.9766 31.0703 75.9609 31.2422 75.9297 31.5234C75.9141 31.8047 75.8828 32.1328 75.8359 32.5078C75.7891 32.8828 75.7422 33.2891 75.6953 33.7266C75.6641 34.1641 75.625 34.5703 75.5781 34.9453C75.5312 35.3203 75.4922 35.6484 75.4609 35.9297C75.4453 36.2109 75.4375 36.3828 75.4375 36.4453C75.4375 36.5703 75.4375 36.6797 75.4375 36.7734C75.4531 36.8516 75.4609 36.9297 75.4609 37.0078C75.4609 37.1328 75.3984 37.2422 75.2734 37.3359C75.1641 37.4141 74.9062 37.5078 74.5 37.6172L68.2891 39.8438C68.1172 39.9062 67.8906 39.9844 67.6094 40.0781C67.3281 40.1719 67.0547 40.2188 66.7891 40.2188C66.5703 40.2188 66.375 40.1641 66.2031 40.0547C66.0469 39.9453 65.9688 39.7578 65.9688 39.4922L67.9844 16.2656C68.0312 15.75 68.0859 15.3984 68.1484 15.2109C68.2266 15.0078 68.4062 14.875 68.6875 14.8125C70.1094 14.5312 71.5781 14.25 73.0938 13.9688C74.6094 13.6719 76.0781 13.2969 77.5 12.8438C77.625 12.8438 77.6953 12.8672 77.7109 12.9141C77.7422 12.9453 77.7578 13 77.7578 13.0781C77.7578 13.1094 77.75 13.1562 77.7344 13.2188C77.7344 13.2812 77.7109 13.4219 77.6641 13.6406C77.6328 13.8594 77.5781 14.1953 77.5 14.6484C77.4375 15.0859 77.3438 15.7031 77.2188 16.5C77.9375 15.9375 78.7266 15.4219 79.5859 14.9531C80.4609 14.4844 81.3359 14.0859 82.2109 13.7578C83.0859 13.4141 83.9297 13.1484 84.7422 12.9609C85.5547 12.7578 86.2656 12.6562 86.875 12.6562L85.4219 19.9219Z" fill="#141414"/>
<path d="M88.0469 29.0625C88.25 26.9219 88.4531 24.8047 88.6562 22.7109C88.8594 20.6172 89.0391 18.4688 89.1953 16.2656C89.2266 15.75 89.2734 15.3984 89.3359 15.2109C89.4141 15.0078 89.5938 14.875 89.875 14.8125C91.2031 14.5469 92.5938 14.2734 94.0469 13.9922C95.5 13.6953 96.9062 13.3203 98.2656 12.8672C98.3125 12.8516 98.3828 12.8438 98.4766 12.8438C98.6484 12.8438 98.7344 12.9062 98.7344 13.0312L96.625 35.8594C96.5781 36.375 96.5234 36.7344 96.4609 36.9375C96.3984 37.125 96.2266 37.25 95.9453 37.3125C94.6172 37.7188 93.2734 38.1719 91.9141 38.6719C90.5547 39.1719 89.1172 39.6797 87.6016 40.1953C87.5547 40.2109 87.4844 40.2188 87.3906 40.2188C87.2188 40.2188 87.1328 40.1406 87.1328 39.9844C87.1328 39.9688 87.1484 39.7578 87.1797 39.3516C87.2109 38.9453 87.25 38.4219 87.2969 37.7812C87.3594 37.1406 87.4219 36.4219 87.4844 35.625C87.5469 34.8281 87.6094 34.0312 87.6719 33.2344C87.75 32.4375 87.8203 31.6719 87.8828 30.9375C87.9453 30.2031 88 29.5781 88.0469 29.0625ZM89.8047 10.3594C89.8516 9.6875 89.8828 9.17188 89.8984 8.8125C89.9297 8.45312 89.9531 8.1875 89.9688 8.01562C89.9844 7.82812 89.9922 7.71094 89.9922 7.66406C89.9922 7.61719 89.9922 7.58594 89.9922 7.57031C90.0078 7.53906 90.0156 7.49219 90.0156 7.42969C90.0312 7.35156 90.0469 7.20312 90.0625 6.98438C90.0781 6.75 90.1016 6.41406 90.1328 5.97656C90.1641 5.53906 90.2109 4.9375 90.2734 4.17188C90.3047 3.65625 90.3516 3.30469 90.4141 3.11719C90.4922 2.91406 90.6719 2.78125 90.9531 2.71875C92.2812 2.45312 93.6719 2.17969 95.125 1.89844C96.5781 1.60156 97.9844 1.22656 99.3438 0.773438C99.3906 0.757812 99.4609 0.75 99.5547 0.75C99.6016 0.84375 99.6641 0.90625 99.7422 0.9375L99.8125 0.984375L99.2969 7.40625C99.25 7.92188 99.1875 8.28125 99.1094 8.48438C99.0469 8.6875 98.8828 8.8125 98.6172 8.85938C97.2891 9.10938 95.9453 9.38281 94.5859 9.67969C93.2266 9.97656 91.7891 10.2734 90.2734 10.5703C90.2266 10.5859 90.1562 10.5938 90.0625 10.5938C89.8906 10.5938 89.8047 10.5156 89.8047 10.3594Z" fill="#141414"/>
<path d="M121.234 39.8438C121.062 39.8906 120.836 39.9609 120.555 40.0547C120.273 40.1641 120 40.2188 119.734 40.2188C119.516 40.2188 119.32 40.1641 119.148 40.0547C118.992 39.9453 118.914 39.7578 118.914 39.4922V39.3516C119.008 38.5078 119.086 37.7969 119.148 37.2188C119.211 36.625 119.266 36.0938 119.312 35.625C119.375 35.1406 119.422 34.6641 119.453 34.1953C119.5 33.7109 119.555 33.1562 119.617 32.5312C119.68 31.8906 119.75 31.1406 119.828 30.2812C119.922 29.4062 120.031 28.3203 120.156 27.0234C120.234 26.2266 120.305 25.4141 120.367 24.5859C120.43 23.7578 120.461 22.9922 120.461 22.2891C120.461 21.8203 120.422 21.3906 120.344 21C120.281 20.5938 120.156 20.25 119.969 19.9688C119.797 19.6719 119.555 19.4453 119.242 19.2891C118.93 19.1328 118.531 19.0547 118.047 19.0547C117.688 19.0547 117.188 19.1328 116.547 19.2891C115.922 19.4453 115.297 19.7031 114.672 20.0625C114.047 20.4219 113.492 20.8984 113.008 21.4922C112.523 22.0703 112.25 22.7891 112.188 23.6484C112.094 24.8047 112.008 25.7969 111.93 26.625C111.852 27.4375 111.781 28.1328 111.719 28.7109C111.656 29.2734 111.602 29.7344 111.555 30.0938C111.523 30.4531 111.5 30.7578 111.484 31.0078C111.469 31.0703 111.445 31.2422 111.414 31.5234C111.383 31.8047 111.344 32.1406 111.297 32.5312C111.266 32.9219 111.227 33.3359 111.18 33.7734C111.148 34.2109 111.109 34.625 111.062 35.0156C111.031 35.4062 111 35.7422 110.969 36.0234C110.953 36.3047 110.945 36.4766 110.945 36.5391C110.945 36.6641 110.945 36.7734 110.945 36.8672C110.961 36.9453 110.969 37.0234 110.969 37.1016C110.969 37.2266 110.906 37.3359 110.781 37.4297C110.672 37.5078 110.414 37.6016 110.008 37.7109L103.797 39.8438C103.625 39.9062 103.398 39.9844 103.117 40.0781C102.836 40.1719 102.562 40.2188 102.297 40.2188C102.078 40.2188 101.883 40.1641 101.711 40.0547C101.555 39.9453 101.477 39.7578 101.477 39.4922L103.609 15.5391C103.656 15.0234 103.711 14.6719 103.773 14.4844C103.852 14.2812 104.031 14.1484 104.312 14.0859C105.734 13.8047 107.195 13.5234 108.695 13.2422C110.195 12.9453 111.656 12.5703 113.078 12.1172C113.203 12.1172 113.273 12.1406 113.289 12.1875C113.32 12.2188 113.336 12.2734 113.336 12.3516C113.336 12.3828 113.328 12.4297 113.312 12.4922C113.312 12.5547 113.289 12.6953 113.242 12.9141C113.211 13.1328 113.156 13.4688 113.078 13.9219C113.016 14.3594 112.922 14.9766 112.797 15.7734C113.875 15.1484 114.883 14.6484 115.82 14.2734C116.773 13.8828 117.664 13.5859 118.492 13.3828C119.336 13.1641 120.125 13.0234 120.859 12.9609C121.594 12.8828 122.281 12.8438 122.922 12.8438C125.125 12.8438 126.727 13.5156 127.727 14.8594C128.727 16.1875 129.227 18.1875 129.227 20.8594C129.227 21.2344 129.219 21.625 129.203 22.0312C129.188 22.4219 129.156 22.8281 129.109 23.25L128.031 33.3281C127.953 33.9844 127.906 34.5938 127.891 35.1562C127.875 35.7031 127.867 36.3438 127.867 37.0781C127.867 37.2031 127.867 37.3125 127.867 37.4062C127.883 37.4844 127.891 37.5547 127.891 37.6172C127.891 37.7578 127.828 37.8672 127.703 37.9453C127.594 38.0234 127.336 38.125 126.93 38.25L121.234 39.8438Z" fill="#141414"/>
</svg>
